#!OML:ASF F:\VICON\USERDATA\INSTALL\rory3\rory3.ASF
:FULLY-SPECIFIED
:DEGREES
99
root 0.6252567962389803 17.828029242958372 11.877061218309318 -1.8844225865393949 0.45387126236657105 3.8635651146137184
lfemur 9.520732873324171 -2.799443065316 -30.225742897952802
ltibia 11.509047049011368
lfoot -18.145572478760208 3.087890024963067
ltoes -0.979616697991331
rfemur -32.58282696048775 3.7522976050479477 15.247478797010341
rtibia 28.439426179242194
rfoot -8.575938959852872 -15.42429355719884
rtoes -3.7517850355991818
lowerback 9.648311149770786 -0.994038763042285 -5.362650177448706
upperback 0.5736601119497252 -1.8929447426448656 0.6052358603486958
thorax -4.695622155656612 -0.8173310501939852 3.621473785389928
lowerneck -16.582615448183518 -2.7876069330173325 -2.5021057621728624
upperneck 20.94985074211664 -3.508682842637811 0.9695789359207262
head 9.412665988764033 -1.7126058172553595 0.2956756137122845
lclavicle -2.5503937847555183e-15 3.5678805556733563e-16
lhumerus -22.089027633359763 -6.002656779253425 82.61148343380317
lradius 29.166374960481996
lwrist 7.0331027743118035
lhand -27.321209448097704 25.307108921951677
lfingers 7.12502
lthumb -0.730348544828142 55.274520523568135
rclavicle -2.5503937847555183e-15 3.5678805556733563e-16
rhumerus -30.478978384492674 -18.894020870668896 -79.41020819202001
rradius 24.736053548952757
rwrist 5.143533624018281
rhand -17.008528709178545 23.226476501108333
rfingers 7.12502
rthumb 9.227006907549132 -6.54613555356763
100
root 0.5789423709950352 17.791319567762486 13.103508720885571 -1.3916099774185786 1.2759970072803473 4.135867266622803
lfemur 13.10532277823976 -2.886175661932628 -29.743524981072362
ltibia 10.295538781417793
lfoot -17.474250907600887 2.1917899263903537
ltoes -3.6940315990019
rfemur -31.349134175531645 5.236256041274244 14.856195377263656
rtibia 21.240182541359907
rfoot -7.693592717984857 -16.099868607598616
rtoes -4.580663966079783
lowerback 9.408964805657169 -1.1793377575491313 -5.603979250827624
upperback 0.5199079505903439 -2.154721298796627 0.7728966541722065
thorax -4.567667221649525 -0.9432062138019213 4.086280912604425
lowerneck -16.66894199801956 -2.794304709589659 -2.4829810438451956
upperneck 20.95581167457443 -3.5168677163259563 1.022914512925028
head 9.436443135734876 -1.7149282564859472 0.312232734689153
lclavicle -1.89179673965754e-15 9.633265358779348e-16
lhumerus -20.610993371731773 -6.35408348813363 82.52226421846089
lradius 30.29660519435552
lwrist 7.645541613452837
lhand -27.543673347295943 25.415571827938138
lfingers 7.12502
lthumb -0.9452478458509288 55.37739449605095
rclavicle -1.8917967396575396e-15 9.633265358779348e-16
rhumerus -30.952517415533073 -19.92964943735767 -78.50974985412884
rradius 24.037499577112932
rwrist 6.328303825057164
rhand -17.017609408618288 23.383105123026482
rfingers 7.12502
rthumb 9.218243784919116 -6.392210678858536
101
root 0.5020405981556665 17.750121810151615 12.981785304284049 -1.15749200410434 1.825555108157252 3.9666808940081695
lfemur 15.344019100982624 -3.328435234067752 -29.433193740938794
ltibia 9.664431414424328
lfoot -16.55780659563627 0.5942825605001272
ltoes -7.297689424354488
rfemur -31.0493574527492 5.983104222460245 14.661247237493829
rtibia 16.7065617703311
rfoot -7.174731838940024 -15.71412614681339
rtoes -5.136127211471257
lowerback 9.213970309591506 -1.426555371602201 -5.823357988253271
upperback 0.46808173559426 -2.490459603949559 0.9457119428371068
thorax -4.500698563090903 -1.1052927584289816 4.333265580068651
lowerneck -16.785195887096652 -2.80306455786627 -2.4772006046769954
upperneck 20.971603831515033 -3.5254702800312887 0.9550994068440749
head 9.457753147462531 -1.719959352173649 0.2879177163613483
lclavicle -2.1957503532914264e-15 6.83296263368905e-16
lhumerus -19.951669977546175 -6.684325846547501 82.46651762464913
lradius 30.99714955137703
lwrist 7.922296516370659
lhand -27.96733631891683 24.9943637497369
lfingers 7.12502
lthumb -1.354436302451163 54.951062243420665
rclavicle -2.1957503532914264e-15 6.83296263368905e-16
rhumerus -31.631313799073403 -21.564897127966645 -77.62260065246655
rradius 23.06829563593112
rwrist 7.561536850115031
rhand -17.12768793511977 23.174260685032824
rfingers 7.12502
rthumb 9.112024127871912 -6.6050254552752
102
root 0.4353364418951592 17.727346129322772 13.866500554377751 -1.113025630680763 2.385675863955082 3.6533163627755996
lfemur 17.39664989513041 -3.8215408218579503 -28.425148920418245
ltibia 12.087017934338323
lfoot -14.291891548067998 -1.116332724479686
ltoes -10.881258952931587
rfemur -30.074610866601684 6.267490002391678 15.583974875443111
rtibia 16.356922361667902
rfoot -6.072105711978064 -13.743087671534763
rtoes -4.451978533355032
lowerback 9.143444951437866 -1.5595185795987274 -5.52214000550481
upperback 0.44731496096468515 -2.6224606493878184 1.2313139264027773
thorax -4.457440470037472 -1.1750339014929143 4.571609404695542
lowerneck -16.851264249220655 -2.7828824077585343 -2.429533532654243
upperneck 21.0737406070911 -3.4854195313500957 0.8588439283617662
head 9.50453747195122 -1.7080446405783372 0.26102119010280905
lclavicle -1.7162275322123032e-15 1.1249253140001957e-15
lhumerus -19.608325327527794 -6.4401378498860575 82.6093224162336
lradius 31.6939168644941
lwrist 8.18892781254094
lhand -28.3901899598756 24.585715230567743
lfingers 7.12502
lthumb -1.7628230948901709 54.53798003980322
rclavicle -1.7162275322123032e-15 1.1249253140001957e-15
rhumerus -32.20738816232341 -23.18470364937766 -76.43429238848049
rradius 22.145389846663043
rwrist 9.224759173589545
rhand -17.19569787597969 22.995847208141715
rfingers 7.12502
rthumb 9.04641003755298 -6.788310187789707
103
root 0.34931864563842646 17.718482102630578 13.477823359359196 -1.3177941419898704 2.676978811991027 2.8928067081588824
lfemur 17.868764979670175 -4.4118583759963945 -27.402459414899745
ltibia 15.850629292302282
lfoot -11.162177499510012 -3.675915449422675
ltoes -14.202868777242353
rfemur -29.900909143150184 5.994171748722673 16.79542481327426
rtibia 17.826061308006203
rfoot -5.29664713588266 -11.321881037835876
rtoes -3.2800459852658066
lowerback 9.120101614729784 -1.7515577976376155 -5.126487097489113
upperback 0.4278775932993539 -2.8167216880718455 1.5403326833153743
thorax -4.474275324373823 -1.2763238758288165 4.609297108867151
lowerneck -16.898825700994994 -2.7535907665992405 -2.3972375356851314
upperneck 21.183921902173665 -3.4287495957272283 0.659568902911354
head 9.54131775087729 -1.6923278007276656 0.20489936499957984
lclavicle -2.0196514944799597e-15 8.454560471949245e-16
lhumerus -20.04393372530844 -6.205079229059634 82.7887897309036
lradius 32.03048474843586
lwrist 8.190214638566667
lhand -28.85468582070837 23.87504635901468
lfingers 7.12502
lthumb -2.211394766857502 53.82566658378261
rclavicle -2.0196514944799597e-15 8.454560471949245e-16
rhumerus -32.95650474969223 -25.12519427028686 -75.31986724784015
rradius 21.1137781343869
rwrist 10.767016533693035
rhand -17.34932449092084 22.565583920973577
rfingers 7.12502
rthumb 8.898173958262982 -7.224366274472734
